# xmcd
#
# Track frame offsets:
#	150
#	14622
#	33495
#
# Disc length: 655 seconds
# Revision: 0
# Processed by: cddbd v1.5.2PL0 Copyright (c) Steve Scherf et al.
# Submitted via: dBpowerAMP V12.0
#
DISCID=1e028d03
DTITLE=Shelby Lynne - Leavin' EP
DYEAR=2000
DGENRE=Easy Listening
TTITLE0=Leavin'
TTITLE1=Life Is Bad (Live)
TTITLE2=Black Light Blue (Live)
EXTD=
EXTT0=
EXTT1=
EXTT2=
PLAYORDER=
